PathFileType	4	(X/Y/Z)	C:\Git\research_data\Projects\torsion_deformities_healthy_kinematics\simulations\P01\pre\dynamic07_l\marker_experimental.trc
DataRate	CameraRate	NumFrames	NumMarkers	Units	OrigDataRate	OrigDataStartFrame	OrigNumFrames
200	200	4	34	mm	200	502	802
Frame#	Time	C7			T10			CLAV			STRN			RBAK			LASI			RASI			SACR			LT1			LT2			LT3			LS1			LS2			LS3			LHEE			LTOE			RT1			RT2			RT3			RS1			RS2			RS3			RHEE			RTOE			LKNE			LANK			RKNE			RANK			LAJC			LKJC			RAJC			RKJC			RHJC			LHJC		
		X1	Y1	Z1	X2	Y2	Z2	X3	Y3	Z3	X4	Y4	Z4	X5	Y5	Z5	X6	Y6	Z6	X7	Y7	Z7	X8	Y8	Z8	X9	Y9	Z9	X10	Y10	Z10	X11	Y11	Z11	X12	Y12	Z12	X13	Y13	Z13	X14	Y14	Z14	X15	Y15	Z15	X16	Y16	Z16	X17	Y17	Z17	X18	Y18	Z18	X19	Y19	Z19	X20	Y20	Z20	X21	Y21	Z21	X22	Y22	Z22	X23	Y23	Z23	X24	Y24	Z24	X25	Y25	Z25	X26	Y26	Z26	X27	Y27	Z27	X28	Y28	Z28	X29	Y29	Z29	X30	Y30	Z30	X31	Y31	Z31	X32	Y32	Z32	X33	Y33	Z33	X34	Y34	Z34	

502	2.505000	530.240112	1019.120850	379.860443	520.323975	844.998535	364.369507	651.987732	996.270630	375.888855	708.791565	870.160278	362.421356	519.789062	950.493408	465.458374	640.609802	687.272522	257.727905	659.846619	692.937012	471.170380	505.687103	736.726990	371.771851	636.440918	509.422363	213.452209	590.621582	422.329834	210.872040	733.275696	433.831482	222.131134	585.328613	281.950623	215.178802	462.687225	291.319672	209.507828	561.129517	189.641998	233.954727	392.805786	177.961227	282.458160	487.141235	73.148956	284.578949	624.618042	520.226929	509.894501	570.366028	441.681885	497.573181	711.690369	439.551422	490.191864	645.741638	277.470978	488.487640	546.792114	211.373917	523.199280	678.783142	188.852798	472.091705	541.212830	48.009556	454.184692	683.954651	48.842644	423.500122	651.696716	353.778442	221.425644	420.158234	136.949615	255.358643	644.571167	353.142181	474.628876	595.191956	44.867020	476.854004	424.087128	134.710175	288.951874	666.297852	342.696991	269.536713	589.774597	50.621330	440.835541	644.423279	353.695404	420.804047	590.357880	634.891623	449.700240	576.351503	630.767293	294.292220	
503	2.510000	536.492188	1020.030945	380.151398	526.479187	845.966309	364.559204	658.049561	997.354980	375.698395	715.003906	871.246521	362.115021	526.274109	951.372437	465.858826	646.759094	689.173401	257.625336	665.890625	693.609985	470.709534	511.788208	737.939209	371.752594	644.257935	511.720856	213.080444	599.907471	423.867401	210.113083	742.304871	437.649933	222.232605	597.002991	282.473511	215.020950	474.153717	289.013184	209.138840	574.864075	189.729614	234.345413	406.595734	174.287415	282.928650	503.972290	72.292206	285.110626	627.898865	520.457092	509.888245	572.544373	442.769775	496.832611	713.774963	438.424805	491.181335	646.883728	277.380249	488.541260	548.219238	211.718246	523.755188	679.575012	188.620056	471.936981	541.260925	48.246307	454.174286	684.033997	48.762756	423.477203	662.040161	356.339203	220.934372	435.114471	134.006943	255.895782	645.464600	353.083771	474.721161	595.875916	44.867111	477.093079	439.046692	132.065247	289.507141	676.539307	345.431366	269.115875	590.251648	50.649231	441.110809	645.973206	353.674835	420.898926	596.465797	635.787870	448.945582	582.533674	632.557023	293.771630	
504	2.515000	542.755432	1020.898193	380.432220	532.629272	846.892761	364.740082	664.122070	998.388550	375.506073	721.235962	872.274963	361.819611	532.775391	952.225708	466.258179	652.987976	691.040039	257.607056	671.907715	694.215271	470.215851	517.872009	739.102844	371.697327	652.076782	513.984985	212.694946	609.162354	425.424622	209.254379	751.254456	441.365723	222.435730	608.611633	282.866547	214.832886	485.609467	286.422089	208.738953	588.663391	189.700928	234.706146	420.574036	170.280548	283.333862	521.021606	71.314514	285.674133	631.162415	520.675110	509.854858	574.724060	443.852020	496.058502	715.839478	437.349884	492.143311	648.068970	277.325104	488.546906	549.768860	212.091507	524.391907	680.400940	188.427017	471.681610	541.361267	48.499184	454.157166	684.122742	48.691612	423.464447	672.273499	358.891724	220.409698	450.271454	130.808823	256.399750	646.368713	353.053070	474.773132	596.640076	44.893219	477.335114	454.197968	129.168243	290.027832	686.595032	348.127197	268.676483	590.756226	50.706150	441.399353	647.536011	353.666229	420.961426	602.563074	636.655868	448.138238	588.782072	634.343052	293.275509	
505	2.520000	549.031982	1021.716736	380.704010	538.775574	847.772034	364.910980	670.209106	999.361633	375.314117	727.486511	873.234192	361.537079	539.295471	953.045654	466.658508	659.287354	692.845093	257.662659	677.891357	694.746338	469.700409	523.937683	740.206848	371.602325	659.897583	516.201355	212.296188	618.376709	426.992249	208.316193	760.124329	444.958130	222.716232	620.155945	283.137390	214.616760	497.074951	283.562073	208.310745	602.522705	189.572601	235.026840	434.750031	165.968658	283.668274	538.278809	70.245224	286.242554	634.426086	520.879028	509.793213	576.925903	444.923309	495.266418	717.907349	436.325287	493.063477	649.279602	277.303894	488.516846	551.354126	212.500183	525.039551	681.244202	188.270767	471.372498	541.510071	48.767761	454.129883	684.219971	48.629818	423.464783	682.389038	361.416656	219.857697	465.635742	127.379463	256.853455	647.308411	353.045776	474.791016	597.409607	44.957664	477.564819	469.546448	126.038536	290.496674	696.472046	350.765198	268.219635	591.249084	50.803047	441.680725	649.124939	353.662598	420.997345	608.639657	637.483263	447.291473	595.084977	636.098036	292.803013	
